<svg width="311" height="70" viewBox="0 0 311 70" fill="none" xmlns="http://www.w3.org/2000/svg">
<rect width="311" height="70" rx="35" fill="#F15525"/>
<path d="M232.455 42.2934C232.064 42.6839 232.064 43.3171 232.455 43.7076C232.846 44.0981 233.479 44.0981 233.869 43.7076L232.455 42.2934ZM247.162 30.0005C247.162 29.4482 246.714 29.0005 246.162 29.0005L237.162 29.0005C236.61 29.0005 236.162 29.4482 236.162 30.0005C236.162 30.5528 236.61 31.0005 237.162 31.0005L245.162 31.0005L245.162 39.0005C245.162 39.5528 245.61 40.0005 246.162 40.0005C246.714 40.0005 247.162 39.5528 247.162 39.0005L247.162 30.0005ZM233.869 43.7076L246.869 30.7076L245.455 29.2934L232.455 42.2934L233.869 43.7076Z" fill="white"/>
<path d="M71.5695 27V33.14H63.9695V27H62.5695V41H63.9695V34.46H71.5695V41H72.9695V27H71.5695ZM83.9633 31V32.96C83.1233 31.62 81.7033 30.76 79.9233 30.76C77.1033 30.76 74.7633 33.04 74.7633 36C74.7633 38.96 77.1033 41.24 79.9233 41.24C81.7033 41.24 83.1233 40.38 83.9633 39.04V41H85.2833V31H83.9633ZM80.0233 39.96C77.8033 39.96 76.0833 38.22 76.0833 36C76.0833 33.78 77.8033 32.04 80.0233 32.04C82.2433 32.04 83.9633 33.78 83.9633 36C83.9633 38.22 82.2433 39.96 80.0233 39.96ZM93.9581 31V35.98C93.0781 36.36 92.0581 36.56 91.0581 36.56C89.3381 36.56 88.3981 35.94 88.3981 34.2V31H87.0781V34.2C87.0781 36.6 88.5181 37.8 91.0981 37.8C92.1381 37.8 93.1781 37.6 93.9581 37.2V41H95.2781V31H93.9581ZM106.084 31V32.96C105.244 31.62 103.824 30.76 102.044 30.76C99.2236 30.76 96.8836 33.04 96.8836 36C96.8836 38.96 99.2236 41.24 102.044 41.24C103.824 41.24 105.244 40.38 106.084 39.04V41H107.404V31H106.084ZM102.144 39.96C99.9236 39.96 98.2036 38.22 98.2036 36C98.2036 33.78 99.9236 32.04 102.144 32.04C104.364 32.04 106.084 33.78 106.084 36C106.084 38.22 104.364 39.96 102.144 39.96ZM116.798 31H108.398V32.28H111.938V41H113.258V32.28H116.798V31ZM121.867 34.8H119.127V31H117.807V41H121.867C123.687 41 125.207 39.74 125.207 37.9C125.207 36.06 123.687 34.8 121.867 34.8ZM121.867 39.72H119.127V36.08H121.867C122.947 36.08 123.887 36.76 123.887 37.9C123.887 39.04 122.947 39.72 121.867 39.72ZM135.662 41.24C138.582 41.24 140.922 38.96 140.922 36C140.922 33.04 138.582 30.76 135.662 30.76C132.742 30.76 130.402 33.04 130.402 36C130.402 38.96 132.742 41.24 135.662 41.24ZM135.662 39.96C133.442 39.96 131.722 38.22 131.722 36C131.722 33.78 133.442 32.04 135.662 32.04C137.882 32.04 139.602 33.78 139.602 36C139.602 38.22 137.882 39.96 135.662 39.96ZM146.97 41.24C149.79 41.24 151.87 39.26 151.87 36.56C151.87 33.84 149.91 31.9 147.25 31.9C146.11 31.9 144.47 32.34 143.47 33.66C143.85 32.26 144.61 31.52 146.47 30.72C148.43 29.86 150.51 29.3 150.83 27.3L149.79 26.7C149.55 28.4 147.85 28.68 145.77 29.68C142.53 31.24 141.93 32.88 141.93 36.1C141.93 39.18 144.15 41.24 146.97 41.24ZM146.97 39.92C144.93 39.92 143.33 38.48 143.33 36.44C143.33 34.34 145.33 33.18 147.07 33.18C149.19 33.18 150.55 34.6 150.55 36.56C150.55 38.5 149.07 39.92 146.97 39.92ZM160.087 31L156.847 39.38L153.087 31H151.687L156.167 41.06L155.907 41.68C155.367 42.98 154.467 43.9 153.167 43.76V45C154.967 45.14 156.447 43.84 157.207 41.92L161.487 31H160.087ZM168.963 31V35.98C168.083 36.36 167.063 36.56 166.063 36.56C164.343 36.56 163.403 35.94 163.403 34.2V31H162.083V34.2C162.083 36.6 163.523 37.8 166.103 37.8C167.143 37.8 168.183 37.6 168.963 37.2V41H170.283V31H168.963ZM177.108 30.76C174.008 30.76 171.888 33.06 171.888 36C171.888 39.02 174.048 41.24 177.208 41.24C179.228 41.24 180.768 40.3 181.608 38.94L180.448 38.26C179.908 39.22 178.808 39.96 177.228 39.96C175.108 39.96 173.528 38.7 173.248 36.66H182.028C182.048 36.46 182.068 36.24 182.068 36.04C182.068 33.3 180.168 30.76 177.108 30.76ZM177.108 32.04C178.828 32.04 180.428 33.18 180.708 35.38H173.248C173.508 33.42 175.008 32.04 177.108 32.04ZM190.648 31V35.36H184.888V31H183.568V41H184.888V36.64H190.648V41H191.968V31H190.648ZM201.439 31L195.479 38.7V31H194.159V41H195.279L201.239 33.3V41H202.559V31H201.439ZM209.371 30.76C206.271 30.76 204.151 33.06 204.151 36C204.151 39.02 206.311 41.24 209.471 41.24C211.491 41.24 213.031 40.3 213.871 38.94L212.711 38.26C212.171 39.22 211.071 39.96 209.491 39.96C207.371 39.96 205.791 38.7 205.511 36.66H214.291C214.311 36.46 214.331 36.24 214.331 36.04C214.331 33.3 212.431 30.76 209.371 30.76ZM209.371 32.04C211.091 32.04 212.691 33.18 212.971 35.38H205.511C205.771 33.42 207.271 32.04 209.371 32.04Z" fill="white"/>
</svg>
