<svg width="321" height="70" viewBox="0 0 321 70" fill="none" xmlns="http://www.w3.org/2000/svg">
<rect width="321" height="70" rx="35" fill="#F15525"/>
<path d="M257.293 42.2929C256.902 42.6834 256.902 43.3166 257.293 43.7071C257.683 44.0976 258.317 44.0976 258.707 43.7071L257.293 42.2929ZM272 30C272 29.4477 271.552 29 271 29L262 29C261.448 29 261 29.4477 261 30C261 30.5523 261.448 31 262 31L270 31L270 39C270 39.5523 270.448 40 271 40C271.552 40 272 39.5523 272 39L272 30ZM258.707 43.7071L271.707 30.7071L270.293 29.2929L257.293 42.2929L258.707 43.7071Z" fill="white"/>
<path d="M59.2673 27.2222H49.2673V41.2222H50.6673V28.5422H57.8673V41.2222H59.2673V27.2222ZM67.0304 30.9822C65.2504 30.9822 63.8304 31.8422 62.9904 33.1822V31.2222H61.6704V45.2222H62.9904V39.2622C63.8304 40.6022 65.2504 41.4622 67.0304 41.4622C69.8504 41.4622 72.1904 39.1822 72.1904 36.2222C72.1904 33.2622 69.8504 30.9822 67.0304 30.9822ZM66.9304 40.1822C64.7104 40.1822 62.9904 38.4422 62.9904 36.2222C62.9904 34.0022 64.7104 32.2622 66.9304 32.2622C69.1504 32.2622 70.8704 34.0022 70.8704 36.2222C70.8704 38.4422 69.1504 40.1822 66.9304 40.1822ZM78.4452 41.4622C81.3652 41.4622 83.7052 39.1822 83.7052 36.2222C83.7052 33.2622 81.3652 30.9822 78.4452 30.9822C75.5252 30.9822 73.1852 33.2622 73.1852 36.2222C73.1852 39.1822 75.5252 41.4622 78.4452 41.4622ZM78.4452 40.1822C76.2252 40.1822 74.5052 38.4422 74.5052 36.2222C74.5052 34.0022 76.2252 32.2622 78.4452 32.2622C80.6652 32.2622 82.3852 34.0022 82.3852 36.2222C82.3852 38.4422 80.6652 40.1822 78.4452 40.1822ZM86.9141 29.6222H92.1141V28.4622H86.9141V29.6222ZM92.5941 31.2222L86.6341 38.9222V31.2222H85.3141V41.2222H86.4341L92.3941 33.5222V41.2222H93.7141V31.2222H92.5941ZM103.106 31.2222H94.7055V32.5022H98.2455V41.2222H99.5655V32.5022H103.106V31.2222ZM111.394 31.2222L105.434 38.9222V31.2222H104.114V41.2222H105.234L111.194 33.5222V41.2222H112.514V31.2222H111.394ZM126.306 31.2222H117.906V32.5022H121.446V41.2222H122.766V32.5022H126.306V31.2222ZM131.544 30.9822C128.444 30.9822 126.324 33.2822 126.324 36.2222C126.324 39.2422 128.484 41.4622 131.644 41.4622C133.664 41.4622 135.204 40.5222 136.044 39.1622L134.884 38.4822C134.344 39.4422 133.244 40.1822 131.664 40.1822C129.544 40.1822 127.964 38.9222 127.684 36.8822H136.464C136.484 36.6822 136.504 36.4622 136.504 36.2622C136.504 33.5222 134.604 30.9822 131.544 30.9822ZM131.544 32.2622C133.264 32.2622 134.864 33.4022 135.144 35.6022H127.684C127.944 33.6422 129.444 32.2622 131.544 32.2622ZM142.663 41.4622C144.623 41.4622 146.323 40.4422 147.143 38.8622L146.043 38.2222C145.403 39.3822 144.183 40.1822 142.663 40.1822C140.443 40.1822 138.723 38.4422 138.723 36.2222C138.723 34.0022 140.443 32.2622 142.663 32.2622C144.163 32.2622 145.423 33.0422 145.963 34.2222L147.043 33.6022C146.323 32.0222 144.643 30.9822 142.663 30.9822C139.643 30.9822 137.403 33.2622 137.403 36.2222C137.403 39.1822 139.643 41.4622 142.663 41.4622ZM155.443 31.2222H147.043V32.5022H150.583V41.2222H151.903V32.5022H155.443V31.2222ZM163.732 31.2222L157.772 38.9222V31.2222H156.452V41.2222H157.572L163.532 33.5222V41.2222H164.852V31.2222H163.732ZM172.403 30.9822C170.623 30.9822 169.203 31.8422 168.363 33.1822V31.2222H167.043V45.2222H168.363V39.2622C169.203 40.6022 170.623 41.4622 172.403 41.4622C175.223 41.4622 177.563 39.1822 177.563 36.2222C177.563 33.2622 175.223 30.9822 172.403 30.9822ZM172.303 40.1822C170.083 40.1822 168.363 38.4422 168.363 36.2222C168.363 34.0022 170.083 32.2622 172.303 32.2622C174.523 32.2622 176.243 34.0022 176.243 36.2222C176.243 38.4422 174.523 40.1822 172.303 40.1822ZM183.818 41.4622C186.738 41.4622 189.078 39.1822 189.078 36.2222C189.078 33.2622 186.738 30.9822 183.818 30.9822C180.898 30.9822 178.558 33.2622 178.558 36.2222C178.558 39.1822 180.898 41.4622 183.818 41.4622ZM183.818 40.1822C181.598 40.1822 179.878 38.4422 179.878 36.2222C179.878 34.0022 181.598 32.2622 183.818 32.2622C186.038 32.2622 187.758 34.0022 187.758 36.2222C187.758 38.4422 186.038 40.1822 183.818 40.1822ZM197.047 36.0822C197.827 35.6222 198.207 34.8622 198.207 33.9022C198.207 32.3822 197.147 31.2222 195.147 31.2222H190.687V41.2222H195.547C197.667 41.2222 198.687 39.9622 198.687 38.4222C198.687 37.3422 198.127 36.4822 197.047 36.0822ZM195.147 32.5022C196.287 32.5022 196.887 33.0622 196.887 33.9822C196.887 34.9822 196.307 35.5422 195.147 35.5422H192.007V32.5022H195.147ZM195.547 39.9422H192.007V36.8222H195.547C196.727 36.8222 197.367 37.4222 197.367 38.3422C197.367 39.3422 196.747 39.9422 195.547 39.9422ZM208.687 31.2222V33.1822C207.847 31.8422 206.427 30.9822 204.647 30.9822C201.827 30.9822 199.487 33.2622 199.487 36.2222C199.487 39.1822 201.827 41.4622 204.647 41.4622C206.427 41.4622 207.847 40.6022 208.687 39.2622V41.2222H210.007V31.2222H208.687ZM204.747 40.1822C202.527 40.1822 200.807 38.4422 200.807 36.2222C200.807 34.0022 202.527 32.2622 204.747 32.2622C206.967 32.2622 208.687 34.0022 208.687 36.2222C208.687 38.4422 206.967 40.1822 204.747 40.1822ZM219.282 31.2222V35.5822H213.522V31.2222H212.202V41.2222H213.522V36.8622H219.282V41.2222H220.602V31.2222H219.282ZM230.073 31.2222L224.113 38.9222V31.2222H222.793V41.2222H223.913L229.873 33.5222V41.2222H231.193V31.2222H230.073ZM238.004 30.9822C234.904 30.9822 232.784 33.2822 232.784 36.2222C232.784 39.2422 234.944 41.4622 238.104 41.4622C240.124 41.4622 241.664 40.5222 242.504 39.1622L241.344 38.4822C240.804 39.4422 239.704 40.1822 238.124 40.1822C236.004 40.1822 234.424 38.9222 234.144 36.8822H242.924C242.944 36.6822 242.964 36.4622 242.964 36.2622C242.964 33.5222 241.064 30.9822 238.004 30.9822ZM238.004 32.2622C239.724 32.2622 241.324 33.4022 241.604 35.6022H234.144C234.404 33.6422 235.904 32.2622 238.004 32.2622Z" fill="white"/>
</svg>
